<svg xmlns="http://www.w3.org/2000/svg" width="125.181" height="125.181" viewBox="0 0 125.181 125.181">
  <g id="Group_236" data-name="Group 236" transform="translate(-1187.12 -741.155)" style="isolation: isolate">
    <path id="Path_369" data-name="Path 369" d="M90.79,0h0a62.575,62.575,0,0,1,62.59,62.59h0a62.575,62.575,0,0,1-62.59,62.59h0A62.575,62.575,0,0,1,28.2,62.59h0A62.575,62.575,0,0,1,90.79,0Z" transform="translate(1158.92 741.155)" fill="#0052ff"/>
    <path id="Path_370" data-name="Path 370" d="M97.427,90.888A21.73,21.73,0,1,1,118.8,65.525h21.87a43.459,43.459,0,1,0,0,7.267H118.8A21.678,21.678,0,0,1,97.427,90.888Z" transform="translate(1152.351 734.587)" fill="#fff"/>
  </g>
</svg>
