<svg xmlns="http://www.w3.org/2000/svg" width="35" height="34.99" viewBox="0 0 35 34.99">
  <path id="Path_341" data-name="Path 341" d="M31.33-40.26a6.581,6.581,0,0,0-1.25-.52A6.847,6.847,0,0,0,28-41.09H14a6.847,6.847,0,0,0-2.08.31A6.912,6.912,0,0,0,8.6-38.54a7.138,7.138,0,0,0-.59.82,6.75,6.75,0,0,0-.46.89,7.482,7.482,0,0,0-.41,1.32A7.172,7.172,0,0,0,7-34.1v11.01a4.012,4.012,0,0,1-4-4v-14a3.993,3.993,0,0,1,4-4H21a4,4,0,0,1,4,3.99h3a7,7,0,0,0-7-6.99H7a6.988,6.988,0,0,0-7,7v14a7.008,7.008,0,0,0,7,7,7.3,7.3,0,0,0,.14,1.4,7.586,7.586,0,0,0,.41,1.3v.01A7.2,7.2,0,0,0,8.6-15.65c.14.16.29.33.45.5a8.69,8.69,0,0,0,1.03.86c.19.1.38.22.59.34a8.263,8.263,0,0,0,1.25.54A7.528,7.528,0,0,0,14-13.1H28a7.528,7.528,0,0,0,2.08-.31,8.263,8.263,0,0,0,1.25-.54c.2-.11.4-.23.58-.34a8.8,8.8,0,0,0,1.04-.86A7.054,7.054,0,0,0,35-20.1v-14A7,7,0,0,0,31.33-40.26ZM32-20.1a4.012,4.012,0,0,1-4,4H14a4,4,0,0,1-4-3.99V-34.1a4,4,0,0,1,4-4H28a4.005,4.005,0,0,1,4,4Z" transform="translate(0 48.09)" fill="#fff"/>
</svg>
