<svg xmlns="http://www.w3.org/2000/svg" width="146.825" height="90" viewBox="0 0 146.825 90">
  <path id="WalletConnect_00000073703063438220642730000002917717552236472496_" d="M30.069,17.557a62.217,62.217,0,0,1,86.686,0l2.878,2.8a2.929,2.929,0,0,1,0,4.242l-9.846,9.657a1.58,1.58,0,0,1-2.159,0l-3.976-3.9a43.4,43.4,0,0,0-60.48,0l-4.242,4.166a1.58,1.58,0,0,1-2.159,0L26.888,24.9a2.929,2.929,0,0,1,0-4.242ZM137.13,37.514l8.786,8.6a2.929,2.929,0,0,1,0,4.242L106.341,89.094a3.086,3.086,0,0,1-4.317,0h0L73.962,61.6a.777.777,0,0,0-1.1,0h0L44.8,89.094a3.086,3.086,0,0,1-4.317,0h0L.909,50.353a2.929,2.929,0,0,1,0-4.242l8.786-8.6a3.086,3.086,0,0,1,4.317,0L42.074,65.009a.777.777,0,0,0,1.1,0h0L71.235,37.514a3.086,3.086,0,0,1,4.317,0h0l28.062,27.494a.777.777,0,0,0,1.1,0l28.062-27.494A3.133,3.133,0,0,1,137.13,37.514Z" transform="translate(0 0.025)" fill="#3b99fc"/>
</svg>
